<?xml version="1.0" encoding="iso-8859-1"?>
<!-- Generator: Adobe Illustrator 22.0.1, SVG Export Plug-In . SVG Version: 6.00 Build 0)  -->
<svg version="1.1" xmlns="http://www.w3.org/2000/svg" xmlns:xlink="http://www.w3.org/1999/xlink" x="0px" y="0px"
	 viewBox="0 0 512 512" style="enable-background:new 0 0 512 512;" xml:space="preserve">
<g id="BULINE">
	<circle id="XMLID_2200_" style="fill:#AC60FC;" cx="256" cy="256" r="256"/>
</g>
<g id="Icons">
	<g>
		<g id="XMLID_242_">
			<rect id="XMLID_1822_" x="304.064" y="321.413" style="fill:#FFFFFF;" width="92.462" height="23.115"/>
			<path id="XMLID_1818_" style="fill:#FE4583;" d="M434.992,312.255c0-16.846-13.706-30.552-30.552-30.552
				c-16.846,0-30.552,13.706-30.552,30.552c0,8.209,3.261,15.666,8.547,21.162c-5.287,5.495-8.547,12.953-8.547,21.162
				c0,16.846,13.706,30.552,30.552,30.552c16.846,0,30.552-13.706,30.552-30.552c0-8.209-3.261-15.666-8.547-21.162
				C431.732,327.921,434.992,320.464,434.992,312.255z M404.441,300.523c6.469,0,11.732,5.263,11.732,11.732
				c0,6.469-5.263,11.732-11.732,11.732c-6.469,0-11.732-5.263-11.732-11.732C392.709,305.785,397.971,300.523,404.441,300.523z
				 M404.441,366.31c-6.469,0-11.732-5.263-11.732-11.732c0-6.469,5.263-11.732,11.732-11.732c6.469,0,11.732,5.263,11.732,11.732
				C416.173,361.047,410.91,366.31,404.441,366.31z"/>
			<g id="XMLID_245_">
				<path id="XMLID_247_" style="fill:#FC3268;" d="M416.173,312.255c0,4.919-3.046,9.133-7.348,10.874
					c1.356,0.548,2.833,0.858,4.384,0.858c6.469,0,11.732-5.263,11.732-11.732s-5.263-11.732-11.732-11.732
					c-1.55,0-3.028,0.309-4.384,0.858C413.126,303.121,416.173,307.336,416.173,312.255z"/>
				<path id="XMLID_248_" style="fill:#FC3268;" d="M408.824,365.452c1.356,0.548,2.833,0.858,4.384,0.858
					c6.469,0,11.732-5.263,11.732-11.732s-5.263-11.732-11.732-11.732c-1.55,0-3.028,0.309-4.384,0.858
					c4.302,1.741,7.348,5.955,7.348,10.874C416.173,359.497,413.126,363.711,408.824,365.452z"/>
				<path id="XMLID_255_" style="fill:#FC3268;" d="M382.656,354.578c0-8.209,3.261-15.666,8.547-21.162
					c-5.287-5.495-8.547-12.952-8.547-21.161c0-15.357,11.392-28.099,26.168-30.232c-1.432-0.207-2.895-0.319-4.384-0.319
					c-16.846,0-30.552,13.706-30.552,30.552c0,8.209,3.261,15.666,8.547,21.161c-5.287,5.495-8.547,12.953-8.547,21.162
					c0,16.846,13.706,30.552,30.552,30.552c1.489,0,2.951-0.112,4.384-0.319C394.048,382.677,382.656,369.935,382.656,354.578z"/>
			</g>
		</g>
		<g id="XMLID_708_">
			<circle id="XMLID_833_" style="fill:#303049;" cx="203.379" cy="337.965" r="144.215"/>
			<circle id="XMLID_832_" style="fill:#9292D6;" cx="275.457" cy="271.564" r="28.607"/>
			<circle id="XMLID_831_" style="fill:#9292D6;" cx="304.064" cy="337.965" r="17.847"/>
			<path id="XMLID_830_" style="fill:#27273D;" d="M139.259,337.966c0-59.249,35.737-110.168,86.841-132.337
				c5.434-2.366,11.029-4.399,16.784-6.075c0.185-0.049,0.357-0.111,0.542-0.16c-0.185-0.049-0.357-0.099-0.542-0.148v-31.153
				h-79.003v31.128c-60.445,17.178-104.721,72.792-104.721,138.745c0,79.644,64.573,144.217,144.217,144.217
				c13.9,0,27.333-1.972,40.05-5.644C183.265,459.188,139.259,403.709,139.259,337.966z"/>
			<ellipse id="XMLID_829_" style="fill:#3E436D;" cx="203.379" cy="168.096" rx="39.499" ry="5.512"/>
			<g id="XMLID_827_">
				<path id="XMLID_828_" style="fill:#F8C952;" d="M209.284,168.108l-11.81-0.012c0-0.537,0.066-13.312,5.794-28.129
					c7.7-19.919,21.983-34.081,41.305-40.955c7.289-2.594,12.508-10.388,14.971-14.802c2.956-5.3,2.596-14.258-1.015-25.223
					l11.218-3.694c4.723,14.344,4.761,26.332,0.111,34.669c-3.995,7.164-10.938,16.48-21.326,20.176
					c-16.089,5.725-27.564,17.07-34.106,33.723C209.39,156.677,209.285,167.996,209.284,168.108z"/>
			</g>
			<g id="XMLID_824_">
				<path id="XMLID_826_" style="fill:#D1A74A;" d="M266.407,58.986c3.606,10.968,3.968,19.92,1.016,25.219
					c-2.464,4.417-7.685,12.212-14.976,14.802c-19.322,6.882-33.605,21.038-41.305,40.958c-5.724,14.818-5.795,27.589-5.795,28.132
					h3.937v0.008l-11.81-0.008c0-0.543,0.071-13.314,5.795-28.132c7.7-19.92,21.983-34.077,41.305-40.958
					c7.291-2.59,12.511-10.385,14.976-14.802c2.953-5.299,2.59-14.251-1.016-25.219l11.212-3.693
					c0.26,0.795,0.504,1.575,0.732,2.354L266.407,58.986z"/>
			</g>
			<path id="XMLID_823_" style="fill:#FC3268;" d="M240.368,55.294c0,2.06-3.839,5.486-8.498,8.885
				c-4.051,2.956-1.989,9.32,3.026,9.334c5.782,0.016,10.905,0.517,12.074,2.123c1.184,1.626,0.071,6.68-1.708,12.201
				c-1.537,4.77,3.874,8.701,7.936,5.766c4.692-3.39,9.152-6,11.084-5.372c1.888,0.613,3.976,5.453,5.803,11.046
				c1.554,4.758,8.251,4.758,9.805,0c1.827-5.592,3.915-10.433,5.803-11.046c1.932-0.627,6.392,1.982,11.085,5.372
				c4.062,2.935,9.474-0.997,7.936-5.767c-1.779-5.521-2.892-10.575-1.708-12.202c1.169-1.606,6.292-2.106,12.073-2.122
				c5.015-0.014,7.077-6.378,3.026-9.334c-4.659-3.399-8.498-6.825-8.498-8.885c0-2.06,3.839-5.486,8.498-8.885
				c4.051-2.956,1.989-9.32-3.026-9.334c-5.782-0.016-10.905-0.517-12.074-2.123c-1.184-1.626-0.071-6.68,1.708-12.201
				c1.537-4.77-3.874-8.701-7.936-5.766c-4.692,3.39-9.152,6-11.084,5.372c-1.888-0.613-3.976-5.453-5.803-11.046
				c-1.554-4.758-8.251-4.758-9.805,0c-1.827,5.592-3.915,10.433-5.803,11.046c-1.932,0.627-6.392-1.982-11.085-5.372
				c-4.062-2.935-9.474,0.997-7.936,5.767c1.779,5.521,2.892,10.575,1.708,12.202c-1.169,1.606-6.292,2.106-12.073,2.122
				c-5.015,0.014-7.077,6.378-3.026,9.334C236.53,49.808,240.368,53.234,240.368,55.294z"/>
			<path id="XMLID_822_" style="fill:#FE4583;" d="M258.402,55.294c0,2.51-12.633,6.989-11.897,9.254
				c0.762,2.347,13.639-1.462,15.06,0.492c1.436,1.973-6.155,13.041-4.181,14.477c1.954,1.422,10.129-9.205,12.476-8.443
				c2.265,0.735,2.619,14.163,5.129,14.163s2.864-13.427,5.129-14.163c2.347-0.762,10.523,9.864,12.476,8.442
				c1.973-1.436-5.617-12.504-4.182-14.477c1.422-1.954,14.298,1.855,15.06-0.492c0.735-2.265-11.897-6.744-11.897-9.254
				c0-2.51,12.633-6.989,11.897-9.254c-0.762-2.347-13.639,1.462-15.06-0.492c-1.436-1.973,6.155-13.041,4.181-14.477
				c-1.954-1.422-10.129,9.205-12.476,8.443c-2.265-0.735-2.619-14.163-5.129-14.163s-2.864,13.427-5.129,14.163
				c-2.347,0.762-10.523-9.864-12.476-8.442c-1.973,1.436,5.617,12.504,4.182,14.477c-1.422,1.954-14.298-1.855-15.06,0.492
				C245.77,48.304,258.402,52.784,258.402,55.294z"/>
		</g>
	</g>
</g>
</svg>
